<?xml version="1.0" encoding="utf-8"?>
<!-- Generator: Adobe Illustrator 19.0.0, SVG Export Plug-In . SVG Version: 6.00 Build 0)  -->
<svg version="1.1" id="Layer_1" xmlns="http://www.w3.org/2000/svg" xmlns:xlink="http://www.w3.org/1999/xlink" x="0px" y="0px"
	 width="364.9px" height="219.5px" viewBox="-384 315.9 364.9 219.5" style="enable-background:new -384 315.9 364.9 219.5;"
	 xml:space="preserve">
<path d="M-372.4,447l0-0.1C-372.4,446.9-372.4,447-372.4,447C-372.4,447-372.4,447-372.4,447z"/>
<g>
	<path d="M-356.6,446c-1.4,0.3-2.5,0.2-3.4-0.3c-0.9-0.5-1.6-2.4-1.9-3.8c-0.1-0.7-0.2-1.8-0.2-2.9c0-1.1,0.1-2.3,0.2-3.7l1.2-9.4
		c5.6-0.9,10.4-0.4,14.6,1.6c4.1,2,6.6,5,7.3,8.9c0.3,1.5,0.3,2.4-0.2,3.3c-0.5,0.9-1.4,1.9-2.9,2.5l0.5,2.5c0,0,12.7-2.4,20.2-3.8
		l0,0.1c6.2-1,16.2-2.5,16.2-2.5l-0.3-2.7c-2,0.1-5-0.4-5.9-1.6c-0.9-1.2-1.7-3.8-2.2-8.1l-5.5-32.7l34.9,42.5l12.4-1.3l-0.3-2.6
		c-1.6-0.1-2.6-1.4-3.3-2.4c-0.7-1-0.9-2.8-1.4-6.7l-2-19.3l-1.1-14.5c1-2.6,2.3-4.7,3.9-6.3c1.7-1.7,4.7-3,7.6-3.6
		c1.2-0.1,2.4-0.2,3.3-0.2l0.8-0.1l2.3,40.7c0.1,2.7,0.1,4.8-0.1,6.4c0,0,0,0.1,0,0.1c0,0.1,0,0.2,0,0.3c-0.1,0.8-0.3,1.5-0.5,2
		c-0.1,0.1-0.2,0.3-0.2,0.4c-0.7,1.1-1.9,1.7-3.6,1.9l0.1,3l23.3-1.4l1.2-3.5c-1.1-0.3-1.9-0.9-2.5-1.8c-0.5-0.8-0.8-2.1-1.1-3.9
		c-0.2-1.3-0.3-2.9-0.4-4.7l-1.3-41l1.1-0.1c3.7-0.2,8.3,0.6,10.9,2.7c1.7,1.4,3.2,3.3,4.4,5.8l3-0.5l-3.7-16
		c-26.1,1.2-28.9,1.5-46.9,3.2l0-0.1l-14.4,1.7l0.3,2.6c2.8-0.1,4.4,6.2,4.9,10l2.1,20.9l-18.9-23.3c-0.5-0.5-0.9-1-1.3-1.5
		c-0.4-0.6-0.6-1.1-0.6-1.4c-0.1-0.5,0-1,0.3-1.5c0.3-0.5,0.5-0.8,1-1.2l-0.6-3l-27.9,4.7l0.3,2.5c2-0.3,2.8,0.1,3.4,1.1
		c0.2,0.4,0.5,1.3,0.5,1.3l6.9,42.7c0,0,0-0.1-0.1-0.1l-20.2-37.1c-0.4-0.7-0.6-1.3-0.8-1.6c-0.1-0.4-0.3-0.8-0.3-1.1
		c-0.1-0.5,0-1.1,0.3-1.7c0.3-0.6,1-1.4,2.3-1.9l-0.5-2.5c0,0-11.4,2.5-15.2,3.4c-3.2,0.8-13.3,3.3-13.3,3.3l0.6,2.6
		c0.4-0.1,2.1,0.1,2.2,0.8c0.1,0.4-0.1,2-0.1,2l-5.1,49.8l-0.2,1.6c0,0.1,0,0.1,0,0.2c0,0.2,0,0.4-0.1,0.6l0,0.1c0,0,0,0,0,0
		c-0.3,1.6-1.3,2.8-2.5,3.3c-0.1,0.1-0.4,0.2-0.5,0.2l0.9,2.4l18.4-4.5L-356.6,446z M-357.8,400.3l10.7,20c-1.9-0.8-3.9-1.3-5.9-1.5
		c-2.1-0.2-4.3-0.2-6.6,0L-357.8,400.3z"/>
	<path d="M-159.6,439c-2.4-0.2-4.7-0.4-6.9-0.6l-27-70.2l-10.3-26.9c-0.4-1.1-2-1.1-2.4,0l-10.2,26.7l-26.9,70.4
		c-2.2,0.2-4.4,0.4-6.7,0.6c-32.3,2.5-51.2,5.1-72.8,8.9c-22.3,3.9-38.4,7.9-50.3,11.1l10,10.1c18.2-4.4,40.7-8.9,54.6-10.8
		c26.3-3.5,80.8-7.2,80.8-7.2l22.9-66.9l21.1,60.6l2.1,6.3c0,0,54.4,3.7,80.8,7.2c13.9,1.9,36.3,6.4,54.6,10.8l10-10.1
		c-11.9-3.2-28-7.2-50.3-11.1C-108.3,444.1-127.3,441.5-159.6,439z"/>
	<path d="M-182.2,460.7l-11.9-0.6c-1.9-5.1-10.3-27-10.3-27c-0.1-0.3-0.4-0.6-0.8-0.6c-0.4,0-0.7,0.2-0.8,0.6c0,0-7.5,21.6-9.3,26.9
		l-12.4,0.6c0,0-30.7,0.4-75.1,6.7c-17.8,2.5-39,6.4-55.5,10.3l7.2,7.5c16.7-3.7,38.5-7.5,54.9-9.6c27.7-3.6,49.9-3.8,62.8-3.5
		c4.3,3.1,11.2,8.1,11.9,8.6c-0.4,1.1-9.3,28.4-9.3,28.4l0,0.3c0,0.3,0.1,0.5,0.3,0.7c0.3,0.2,0.7,0.2,1,0c0,0,23.5-16.9,24.4-17.6
		c0.9,0.7,24.4,17.6,24.4,17.6c0.3,0.2,0.7,0.2,1,0c0.2-0.2,0.3-0.4,0.3-0.7l0-0.3c0,0-8.9-27.3-9.3-28.4c0.6-0.4,7.5-5.4,11.8-8.5
		c12.9-0.4,35.2-0.2,63.3,3.4c16.4,2.1,38.2,5.9,54.9,9.6l7.2-7.5c-16.4-3.9-37.6-7.8-55.5-10.3
		C-151.5,461.1-182.2,460.7-182.2,460.7z"/>
	<path d="M-30.3,420.8c-1.9-3.1-6-6.6-12.3-10.3l-6.6-3.9c-2.8-1.7-4.6-3.1-5.4-4.3c-0.8-1.2-1.1-2.5-0.8-4.1c0.3-1.8,1.3-3.1,3-4
		c1.7-0.9,3.7-1,6-0.5c3.1,0.7,5.8,2.4,8.2,5.2c2.4,2.8,4.1,6.4,5.3,10.8l2.4,0.2l1.7-19.3c-0.9,0.3-1.7,0.5-2.4,0.6
		c-0.7,0.1-1.3,0.1-1.8-0.1c-1.4-0.3-3.9-1.2-7.5-2.6c-3.7-1.4-6.7-2.4-9.1-2.9c-6.6-1.4-10.5-0.7-14.9,1.8
		c-4.5,2.5-7.2,6.6-8.2,12.2c-0.8,4.2-0.3,7.9,1.5,11.1c1.7,3.2,4,6.1,8.5,8.8l5.6,3.7c0.3,0.2,0.8,0.5,1.5,0.9
		c5.8,3.4,9.8,7.4,9.2,11c-0.5,2.5-2.5,3.8-4.7,4.8c-2.2,1-5.8,1-9.4,0.3c-5.3-1.1-10.2-3.6-12.5-7.7c-3-5.4-2.3-4.3-3.2-8.7
		l-1.4-0.2c0,0-0.2,1.2-0.6,1.9c-0.2,0.3-0.3,0.6-0.6,1c-1.7,2.3-3.8,3.4-6.1,4.6c-4,2.1-8.1,3-12.6,2.3c-2.8-0.4-5.2-1.6-6.1-2.8
		c-0.9-1.3-1.7-3.7-1.3-7.1l2.1-16.7l4.9,0.8c3.2,0.5,6.3,1.9,7.9,3.6c1.1,1.2,2,3,2.6,5.4l2.3-0.1l-0.6-20.1l-1.7-0.3
		c-0.6,2.6-1.5,4.3-2.6,5.1c-1.1,0.8-3.8,0.7-6.7,0.3l-5.3-0.8l1.2-10.7c0.6-3.9,1.7-4.6,2.6-5.4c0.9-0.8,3.2-0.7,5.4-0.4
		c4.4,0.7,8.1,2.4,10.9,5c1.7,1.6,3.1,3.5,4.1,5.8l3.5-0.2l-1.4-14c0,0-26.4-4.2-26.8-4.2l-16.6-2.3l-0.4,2.2
		c1.5,0.5,2.3,3.1,2.7,4.3c0.4,1.1,0.6,1.8,0.3,5.6c-0.6,9.1-2.5,28.9-4.3,37.8c-0.7,3.5-1.5,5.7-2.1,6.8c-0.8-1.6-1.2-4.1-1.9-6.6
		c0-0.2-0.1-0.3-0.1-0.5c-1.7-5.9-3.5-10.8-5.2-14.8c-1.8-4-3.7-7.5-5.7-10.5c4.3-2.4,8-5,9.8-7.3c1.8-2.3,2.8-4.9,3-7.8
		c0.2-3.4-0.6-5.9-2.5-7.7c-1.9-1.8-4.8-2.8-8.9-3.1c0,0-13.7-1.2-18.2-1.6c-5-0.4-20.2-1.2-20.2-1.2l-0.2,2.6
		c1.5,0.4,3,1.2,3.5,2.4c0.5,1.1,0.6,3.6,0.4,7.5l-1.8,36.4l5,13.9l14.1,1l0.1-2c-1.5-0.4-2.5-1.2-3-2.3c-0.5-1.1-0.6-4.6-0.4-8.5
		l1-16.4l3.6-1.1c3.1,4,5.5,8.4,7.4,13.1c1.9,4.8,2.8,8.4,2.6,10.9c-0.1,0.9-0.7,2.6-1.2,3.1c-0.4,0.5-1.3,1.1-2.4,1.1l-0.2,2.6
		c7.6,0.8,14.9,1.3,22.8,2.1c11.2,1.2,22.8,2.8,35.1,5.1c2.1,0.4,5.1,0.9,5.1,0.9s1.4-2.3,2.3-3.3c0.4,1.2,0.6,3,0.9,4
		c1.5-0.4,4.1-0.1,7.8,1.5c3.7,1.6,7.2,2.7,10.5,3.4c8.1,1.8,15,1.2,20.7-1.7c5.7-2.9,9.1-7.6,10.3-14.1
		C-27.9,427.7-28.4,423.9-30.3,420.8z M-143.4,393.4c-2.4,2.1-6.1,3.5-10.2,4.2l0.9-15c0.1-2.3,0.6-3.7,1.5-4.2
		c0.8-0.5,2.3-0.7,4.5-0.5c2.5,0.2,4.7,1,5.7,2.1c1.1,1.2,1.6,2.9,1.4,5.3C-139.8,388.5-141.1,391.2-143.4,393.4z"/>
</g>
</svg>
